<?xml version="1.0" encoding="UTF-8" standalone="no"?>
<!-- Created with Inkscape (http://www.inkscape.org/) -->

<svg
   width="13.229167mm"
   height="13.229181mm"
   viewBox="0 0 13.229167 13.229181"
   version="1.1"
   id="svg5"
   inkscape:export-filename="C:\Users\garfu\OneDrive\Documents\Python Fun\Chat_GPT\PixelScape\sign_in_icon.png"
   inkscape:export-xdpi="96"
   inkscape:export-ydpi="96"
   inkscape:version="1.1.1 (3bf5ae0d25, 2021-09-20)"
   sodipodi:docname="signinhover.svg"
   xmlns:inkscape="http://www.inkscape.org/namespaces/inkscape"
   xmlns:sodipodi="http://sodipodi.sourceforge.net/DTD/sodipodi-0.dtd"
   xmlns="http://www.w3.org/2000/svg"
   xmlns:svg="http://www.w3.org/2000/svg">
  <sodipodi:namedview
     id="namedview7"
     pagecolor="#ffffff"
     bordercolor="#666666"
     borderopacity="1.0"
     inkscape:pageshadow="2"
     inkscape:pageopacity="0.0"
     inkscape:pagecheckerboard="0"
     inkscape:document-units="mm"
     showgrid="false"
     inkscape:zoom="4"
     inkscape:cx="-26.375"
     inkscape:cy="18.625"
     inkscape:window-width="1920"
     inkscape:window-height="1009"
     inkscape:window-x="-8"
     inkscape:window-y="-8"
     inkscape:window-maximized="1"
     inkscape:current-layer="layer1" />
  <defs
     id="defs2">
    <filter
       id="mask-powermask-path-effect19915_inverse"
       inkscape:label="filtermask-powermask-path-effect19915"
       style="color-interpolation-filters:sRGB"
       height="100"
       width="100"
       x="-50"
       y="-50">
      <feColorMatrix
         id="mask-powermask-path-effect19915_primitive1"
         values="1"
         type="saturate"
         result="fbSourceGraphic" />
      <feColorMatrix
         id="mask-powermask-path-effect19915_primitive2"
         values="-1 0 0 0 1 0 -1 0 0 1 0 0 -1 0 1 0 0 0 1 0 "
         in="fbSourceGraphic" />
    </filter>
  </defs>
  <g
     inkscape:label="Layer 1"
     inkscape:groupmode="layer"
     id="layer1"
     transform="translate(-71.337803,-173.93799)">
    <g
       id="g25423"
       style="fill:#94b8ff;fill-opacity:1"
       inkscape:export-filename="C:\Users\garfu\OneDrive\Documents\Python Fun\Chat_GPT\PixelScape\sign_in_icon.png"
       inkscape:export-xdpi="96"
       inkscape:export-ydpi="96">
      <g
         id="g6447"
         transform="matrix(0.28435581,0,0,0.28385915,50.719311,124.70742)"
         style="fill:#94b8ff;fill-opacity:1"
         inkscape:export-filename="C:\Users\garfu\OneDrive\Documents\Python Fun\Chat_GPT\PixelScape\sign_in_icon.png"
         inkscape:export-xdpi="96"
         inkscape:export-ydpi="96" />
      <g
         id="g27004"
         inkscape:export-filename="C:\Users\garfu\OneDrive\Documents\Python Fun\Chat_GPT\PixelScape\sign_in_icon.png"
         inkscape:export-xdpi="96"
         inkscape:export-ydpi="96"
         style="fill:#94b8ff;fill-opacity:1">
        <g
           id="g26818"
           transform="matrix(0.2843558,0,0,0.28385916,50.941628,124.59796)"
           style="fill:#94b8ff;fill-opacity:1">
          <text
             xml:space="preserve"
             style="font-size:11.5636px;line-height:1.25;font-family:sans-serif;-inkscape-font-specification:sans-serif;fill:#94b8ff;fill-opacity:1;stroke-width:0.289091"
             x="97.784668"
             y="193.10094"
             id="text3985"><tspan
               sodipodi:role="line"
               id="tspan3983"
               style="fill:#94b8ff;fill-opacity:1;stroke-width:0.289091"
               x="97.784668"
               y="193.10094">+</tspan></text>
          <path
             d="m 89.892665,208.19765 c -1.592202,-0.24762 -4.658191,-1.52358 -5.50717,-2.2919 -1.044191,-0.94498 -0.254691,-3.77657 1.47688,-5.2969 1.378609,-1.21044 3.46627,-1.76372 6.654938,-1.76372 3.188661,0 5.276321,0.55328 6.654933,1.76372 1.726174,1.51559 2.524824,4.36355 1.481004,5.2812 -2.047435,1.79996 -7.082215,2.87966 -10.760585,2.3076 z m 0.908569,-12.22413 c -1.759951,-0.93966 -2.729011,-2.88858 -2.60104,-5.2311 0.11402,-2.08713 0.82944,-3.25694 2.438861,-3.98785 1.437089,-0.65265 2.44498,-0.62891 3.871629,0.0912 3.92362,1.98039 2.729511,8.93849 -1.651799,9.62504 -0.611201,0.0958 -1.224521,-0.0524 -2.057651,-0.49726 z"
             style="fill:#94b8ff;fill-opacity:1;stroke-width:0.0700042"
             id="path6353" />
        </g>
        <path
           style="fill:#94b8ff;fill-opacity:1;stroke-width:0.0707177"
           d="m 76.716637,187.08386 c -2.141312,-0.44404 -3.853961,-1.77418 -4.783512,-3.71517 -0.478573,-0.99931 -0.595322,-1.55257 -0.595322,-2.82118 0,-0.90785 0.02651,-1.19185 0.155065,-1.66041 0.638188,-2.32638 2.453765,-4.13846 4.789691,-4.78049 0.816735,-0.22448 2.506995,-0.22491 3.326644,-8e-4 2.330439,0.63707 4.1457,2.44948 4.788851,4.78132 0.224875,0.81531 0.2253,2.50262 8.02e-4,3.32083 -0.191866,0.69941 -0.626471,1.61841 -1.033442,2.18528 -0.357192,0.49754 -1.200796,1.32615 -1.685279,1.65534 -0.516408,0.35087 -1.444426,0.77001 -2.07097,0.93533 -0.735911,0.19419 -2.195051,0.24462 -2.892566,0.1 z m 2.252159,-0.5673 c 2.53245,-0.44085 4.514953,-2.41989 4.956575,-4.94792 0.135696,-0.77677 0.135696,-1.26549 0,-2.04226 -0.609468,-3.48884 -4.069376,-5.72472 -7.497432,-4.84503 -2.100998,0.53915 -3.81839,2.25354 -4.358481,4.35087 -1.092025,4.24064 2.589721,8.23456 6.899338,7.48434 z"
           id="path854"
           sodipodi:nodetypes="csscscscsssccssssss" />
      </g>
    </g>
  </g>
</svg>
